<svg xmlns="http://www.w3.org/2000/svg" id="filter" width="37.233" height="37.233" viewBox="0 0 37.233 37.233">
    <defs>
        <style>
            .cls-1{fill:#00a991}
        </style>
    </defs>
    <path id="Path_509" d="M30.572 0H6.661A6.668 6.668 0 0 0 0 6.661v23.911a6.668 6.668 0 0 0 6.661 6.661h23.911a6.668 6.668 0 0 0 6.661-6.661V6.661A6.668 6.668 0 0 0 30.572 0zm4.479 30.572a4.484 4.484 0 0 1-4.479 4.479H6.661a4.484 4.484 0 0 1-4.479-4.479V6.661a4.484 4.484 0 0 1 4.479-4.479h23.911a4.484 4.484 0 0 1 4.479 4.479z" class="cls-1"/>
    <path id="Path_510" d="M91.062 82.671H74.448a3.426 3.426 0 0 0-6.5 0h-2.59a1.091 1.091 0 0 0 0 2.182h2.593a3.426 3.426 0 0 0 6.5 0h16.611a1.091 1.091 0 1 0 0-2.182zM71.2 85.007a1.246 1.246 0 1 1 1.246-1.246 1.247 1.247 0 0 1-1.246 1.246z" class="cls-1" transform="translate(-59.594 -74.492)"/>
    <path id="Path_511" d="M91.062 211.2h-2.593a3.426 3.426 0 0 0-6.5 0H65.358a1.091 1.091 0 1 0 0 2.182h16.614a3.426 3.426 0 0 0 6.5 0h2.593a1.091 1.091 0 1 0 0-2.182zm-5.842 2.34a1.246 1.246 0 1 1 1.246-1.246 1.247 1.247 0 0 1-1.246 1.246z" class="cls-1" transform="translate(-59.594 -193.678)"/>
    <path id="Path_512" d="M91.062 339.737h-11.94a3.426 3.426 0 0 0-6.5 0h-7.264a1.091 1.091 0 1 0 0 2.182h7.267a3.426 3.426 0 0 0 6.5 0h11.94a1.091 1.091 0 1 0 0-2.182zm-15.189 2.337a1.246 1.246 0 1 1 1.246-1.246 1.247 1.247 0 0 1-1.246 1.245z" class="cls-1" transform="translate(-59.594 -312.864)"/>
</svg>
