<svg xmlns="http://www.w3.org/2000/svg" width="36" height="36" viewBox="0 0 36 36">
    <defs>
        <clipPath id="clip-path">
            <circle id="Ellipse_70" cx="18" cy="18" r="18" fill="#fff" stroke="#03b39c" transform="translate(156 2699)"/>
        </clipPath>
        <style>
            .cls-3{fill:#00a991}
        </style>
    </defs>
    <g id="Mask_Group_6" clip-path="url(#clip-path)" transform="translate(-156 -2699)">
        <g id="instagram" transform="translate(156 2699)">
            <path id="Path_236" d="M21.445 18A3.445 3.445 0 1 1 18 14.555 3.445 3.445 0 0 1 21.445 18zm0 0" class="cls-3"/>
            <path id="Path_237" d="M26.057 11.9A3.423 3.423 0 0 0 24.1 9.943a5.719 5.719 0 0 0-1.919-.356c-1.09-.05-1.417-.06-4.177-.06s-3.087.01-4.177.06a5.722 5.722 0 0 0-1.919.356A3.424 3.424 0 0 0 9.942 11.9a5.721 5.721 0 0 0-.356 1.919c-.05 1.09-.06 1.417-.06 4.177s.011 3.087.06 4.177a5.719 5.719 0 0 0 .356 1.927 3.423 3.423 0 0 0 1.958 1.958 5.712 5.712 0 0 0 1.919.356c1.09.05 1.416.06 4.176.06s3.087-.01 4.177-.06a5.712 5.712 0 0 0 1.919-.356 3.423 3.423 0 0 0 1.966-1.958 5.724 5.724 0 0 0 .356-1.919c.05-1.09.06-1.417.06-4.177s-.01-3.087-.06-4.177a5.712 5.712 0 0 0-.356-1.927zM18 23.307A5.307 5.307 0 1 1 23.307 18 5.308 5.308 0 0 1 18 23.307zm5.517-9.584a1.24 1.24 0 1 1 1.24-1.24 1.24 1.24 0 0 1-1.24 1.24zm0 0" class="cls-3"/>
            <path id="Path_238" d="M18 0a18 18 0 1 0 18 18A18 18 0 0 0 18 0zm10.274 22.261a7.583 7.583 0 0 1-.48 2.509 5.285 5.285 0 0 1-3.023 3.023 7.588 7.588 0 0 1-2.509.48c-1.1.05-1.454.062-4.261.062s-3.159-.012-4.262-.062a7.588 7.588 0 0 1-2.509-.48 5.285 5.285 0 0 1-3.023-3.023 7.581 7.581 0 0 1-.48-2.509c-.051-1.1-.063-1.455-.063-4.262s.012-3.159.062-4.261a7.584 7.584 0 0 1 .48-2.509 5.289 5.289 0 0 1 3.024-3.022 7.59 7.59 0 0 1 2.509-.48c1.1-.05 1.454-.062 4.261-.062s3.159.012 4.261.063a7.592 7.592 0 0 1 2.509.48 5.286 5.286 0 0 1 3.023 3.023 7.582 7.582 0 0 1 .481 2.509c.05 1.1.062 1.454.062 4.261s-.012 3.158-.062 4.26zm0 0" class="cls-3"/>
        </g>
    </g>
</svg>
