<svg xmlns="http://www.w3.org/2000/svg" width="36" height="36" viewBox="0 0 36 36">
    <defs>
        <clipPath id="o6n26e1npa">
            <circle cx="18" cy="18" r="18" fill="#fff" stroke="#03b39c" transform="translate(212 2699)"/>
        </clipPath>
    </defs>
    <g clip-path="url(#o6n26e1npa)" transform="translate(-212 -2699)">
        <path fill="#00a991" d="M18 0a18 18 0 1 0 18 18A18 18 0 0 0 18 0zm-5.231 27.211H8.386V14.022h4.384zm-2.192-14.99h-.029a2.285 2.285 0 1 1 .058-4.557 2.286 2.286 0 1 1-.029 4.557zm18 14.99h-4.384v-7.056c0-1.773-.635-2.983-2.221-2.983a2.4 2.4 0 0 0-2.249 1.6 3 3 0 0 0-.144 1.07v7.365H15.2s.057-11.951 0-13.189h4.384v1.872a4.352 4.352 0 0 1 3.951-2.177c2.884 0 5.047 1.885 5.047 5.936zm0 0" transform="translate(212 2699)"/>
    </g>
</svg>
