<svg xmlns="http://www.w3.org/2000/svg" width="36" height="36" viewBox="0 0 36 36">
    <defs>
        <clipPath id="5hmen0vwga">
            <circle cx="18" cy="18" r="18" fill="#00a991" stroke="#03b39c" transform="translate(267 2699)"/>
        </clipPath>
    </defs>
    <g clip-path="url(#5hmen0vwga)" transform="translate(-267 -2699)">
        <path fill="#00a991" d="M36 18a18 18 0 1 0-18 18c.105 0 .211 0 .316-.007V21.987h-3.867V17.48h3.867v-3.319c0-3.846 2.348-5.941 5.78-5.941a31.414 31.414 0 0 1 3.466.176v4.022H25.2c-1.863 0-2.229.886-2.229 2.187v2.869h4.465l-.584 4.507h-3.881V35.3A18.005 18.005 0 0 0 36 18z" transform="translate(267 2699)"/>
    </g>
</svg>
