<svg xmlns="http://www.w3.org/2000/svg" width="22.954" height="22.859" viewBox="0 0 22.954 22.859">
    <g>
        <g>
            <path d="M22.4 13.678a.807.807 0 0 0-.675.147 8.612 8.612 0 0 1-2.612 1.526 8.181 8.181 0 0 1-2.965.528 8.619 8.619 0 0 1-8.63-8.63A9.046 9.046 0 0 1 7.984 4.4a7.881 7.881 0 0 1 1.409-2.522.749.749 0 0 0-.118-1.056A.807.807 0 0 0 8.6.675a11.845 11.845 0 0 0-6.222 4.168 11.622 11.622 0 1 0 20.547 9.745.712.712 0 0 0-.525-.91z" transform="translate(0 -.652) translate(0 .652) translate(0 -.652)"/>
        </g>
    </g>
</svg>
