<svg xmlns="http://www.w3.org/2000/svg" width="27.673" height="27.673" viewBox="0 0 27.673 27.673">
    <defs>
        <style>
            .cls-1{fill:#fff}
        </style>
    </defs>
    <g id="user_1_" transform="translate(.163)">
        <circle id="Ellipse_105" cx="13" cy="13" r="13" class="cls-1" transform="translate(.674 .837)"/>
        <path id="Path_406" d="M3.953 0a4.056 4.056 0 0 1 3.954 4.151A4.056 4.056 0 0 1 3.953 8.3 4.056 4.056 0 0 1 0 4.151 4.056 4.056 0 0 1 3.953 0z" class="cls-1" transform="translate(9.721 4.744)"/>
        <path id="Path_404" fill="#00a991" d="M13.837 0a13.837 13.837 0 1 0 13.836 13.837A13.837 13.837 0 0 0 13.837 0zm0 3.243a5.675 5.675 0 1 1-5.676 5.675 5.682 5.682 0 0 1 5.676-5.675zm9.213 15.826a10.6 10.6 0 0 1-18.426 0l-.287-.5.384-.434a5.68 5.68 0 0 1 4.251-1.916H18.7a5.68 5.68 0 0 1 4.251 1.916l.384.434z" transform="translate(-.163)"/>
        <path id="Path_405" d="M120.232 330a4.057 4.057 0 0 0-2.615.957 8.974 8.974 0 0 0 14.959 0 4.057 4.057 0 0 0-2.615-.957z" class="cls-1" transform="translate(-111.423 -312.164)"/>
    </g>
</svg>
